<svg xmlns="http://www.w3.org/2000/svg" viewBox="0 0 413.38 315.49"><defs><style>.cls-1{fill:#1d1f63;}.cls-2{fill:#181c5d;}.cls-3{fill:#1e1c61;}.cls-4{fill:#152464;}.cls-5{fill:#162465;}.cls-6{fill:#090a28;}.cls-7{fill:#989898;}.cls-8{fill:#807f80;}.cls-9{fill:#e1711e;}.cls-10{fill:#cbcbcc;}.cls-11{fill:#a65833;}.cls-12{fill:#010002;}.cls-13{fill:#f2f2f2;}.cls-14{fill:#fdfdfd;}.cls-15{fill:#fefefe;}.cls-16{fill:#7e7f81;}.cls-17{fill:#fdfdfc;}.cls-18{fill:#fcfcfc;}.cls-19{fill:#929495;}.cls-20{fill:#cda566;}.cls-21{fill:#93697e;}.cls-22{fill:#260011;}.cls-23{fill:#cfd1e3;}.cls-24{fill:#ced0e1;}.cls-25{fill:#cdcfe0;}.cls-26{fill:#62c0f3;}.cls-27{fill:#987d64;}.cls-28{fill:#5ebbf1;}.cls-29{fill:#040441;}.cls-30{fill:#cde9fc;}.cls-31{fill:#010150;}.cls-32{fill:#61c2f4;}.cls-33{fill:#000353;}.cls-34{fill:#010155;}.cls-35{fill:#b9bad1;}.cls-36{fill:#b8b8cf;}.cls-37{fill:#b8b9cf;}.cls-38{fill:#96a7cf;}.cls-39{fill:#b7b8d0;}.cls-40{fill:#182969;}.cls-41{fill:#5b84c4;}.cls-42{fill:#d3e6eb;}.cls-43{fill:#b7b8cf;}.cls-44{fill:#fbd805;}.cls-45{fill:#182d73;}.cls-46{fill:#60ade4;}.cls-47{fill:#c5c6c9;}.cls-48{fill:#c5c7cc;}.cls-49{fill:#f2f3f7;}.cls-50{fill:#cbcb3f;}.cls-51{fill:#65b9ea;}.cls-52{fill:#c8c195;}.cls-53{fill:#cbcb40;}.cls-54{fill:#d8be46;}.cls-55{fill:#6fbbed;}.cls-56{fill:#a1b09f;}.cls-57{fill:#bfc55c;}.cls-58{fill:#d5f2fa;}.cls-59{fill:#364938;}.cls-60{fill:#a7baa5;}.cls-61{fill:#010940;}.cls-62{fill:#a6a8c6;}.cls-63{fill:#2b2805;}.cls-64{fill:#180a01;}.cls-65{fill:#04042e;}.cls-66{fill:#314286;}.cls-67{fill:#a7adcf;}.cls-68{fill:#adb1d6;}.cls-69{fill:#c5c4d9;}.cls-70{fill:#c1c1cb;}.cls-71{fill:#f1f1f1;}.cls-72{fill:#3c3b69;}.cls-73{fill:#272951;}.cls-74{fill:#ede4d2;}.cls-75{fill:#09134d;}.cls-76{fill:#c0ebf9;}.cls-77{fill:#202057;}.cls-78{fill:#222256;}.cls-79{fill:#1e1e55;}.cls-80{fill:gray;}</style></defs><g id="Layer_1" data-name="Layer 1"><path class="cls-1" d="M269.65,548.77c4.41-1.23,8.92-.33,13.38-.54,2-.09,2.92-.44,2.75-2.84-1-14.22,0-17.66,16.57-16.72a6.08,6.08,0,0,0,1.4-.25c-4.1-12.5-4.48-25.48-5.9-38.29-.38-3.38,0-6.74-2.83-9.69-2.24-2.36-.88-9.12,1.68-11.28a7.07,7.07,0,0,0,2-2.75,26.42,26.42,0,0,1,16.11-15.35c2.13-.76,2.83-1.81,2.75-4-.16-4.32.05-8.66-.12-13-.18-4.76,3.28-4.95,6.39-4.95s6.68-.14,6.6,4.68c-.07,4.33.09,8.66,0,13-.07,2.32.59,3.51,3,4.35,7.44,2.61,12.59,7.75,15.84,15,2.62,5.83,4.59,6.25,10.19,3.06,8.52-4.86,15.41-11.53,21.58-19.06,1.55-1.9,1.63-3.79,1.44-6-.93-11-1.66-21.91-2.59-32.86-.6-7,1.58-12.42,8.17-15.62,1-.46,2.65-.88,1.77-2.38-1.5-2.59-1.17-6.32-5-7.49a53.91,53.91,0,0,1-13-6.22,9.93,9.93,0,0,1-5-7.61,226.92,226.92,0,0,1,.07-53.82,8.76,8.76,0,0,1,3.52-6.34c1.73-1.3,3.44-3,5.42-3.51,8.42-2.26,11.58-8.8,15.37-15.89,19.48-36.41,50.37-55.74,91.59-54.83,42.09.93,72.22,22.27,90.12,60.4,1.91,4.08,4,7,8.39,8.11a22.52,22.52,0,0,1,3.16,1.47c7.43,3.12,10.42,8.68,10.84,16.74a396.06,396.06,0,0,1,.09,41.92c-.43,8.18-3.51,13.56-11.16,16.38-2.18.8-4.2,2.2-6.43,2.67-4.57,1-4.83,5-6.33,8.16-.75,1.57.87,1.89,1.84,2.38,6.29,3.22,8.45,8.49,7.87,15.3-.77,9-1.23,17.94-2.11,26.89-.33,3.38.57,5.23,3.54,7.21,14.13,9.39,19.46,23.33,18.31,39.64-1,13.62-10.3,22.77-23.85,25.05-1.49.25-3.23-.17-5,1.28,4.79,1.74,10.87-1.79,13.47,3.64,2,4.24,1.18,9.08-1.24,14,8.56,0,16.51,0,24.46,0,7.53,0,10.24,2.71,10.33,10.14a13.56,13.56,0,0,1,0,3c-1,4.36.37,6.93,5.14,7-.48,2.6-2.13,3.4-4.6,3.06a19,19,0,0,0-2.5,0H276.12c-2.48,0-5,.3-7.36-.88a1.13,1.13,0,0,1,.35-1.93c4.84.88,9.78-.19,14.63.55C279.09,548.81,274.24,550.36,269.65,548.77Z" transform="translate(-240.28 -237.5)"/><path class="cls-2" d="M345.2,308.34a20.51,20.51,0,0,1-4.75,13.36c-3.59,4.12-2.33,6.89,1,10,1.12,1.06,3.27,2,2.4,3.93-1,2.15-3.16,1.15-4.92.93-.33,0-.65-.13-1-.2a47.71,47.71,0,0,0-21.87-.52c-10.95,2.31-21.46-.52-30.39-7.86-12.85-10.56-13.81-28.24-2.11-40,14.08-14.13,40.56-13.76,54.17.81A26.74,26.74,0,0,1,345.2,308.34Z" transform="translate(-240.28 -237.5)"/><path class="cls-3" d="M268.76,551.06c6.49,0,13-.1,19.47-.1H622.92c-1-1.79-2.71-.32-4.19-2.05h5.38c1.69,2,1.13,3.26-1.26,3.73a20.26,20.26,0,0,1-4,.13q-171.69,0-343.37-.07C273.25,552.69,270.4,554,268.76,551.06Z" transform="translate(-240.28 -237.5)"/><path class="cls-4" d="M641.31,548.21h9c1.57,0,3.25.22,3.37,2.13s-1.46,2.4-3.07,2.4c-6.31,0-12.62,0-18.93,0-1.38,0-2.75-.31-2.83-2.08-.1-2.13,1.48-2.37,3-2.41C635,548.17,638.15,548.21,641.31,548.21Z" transform="translate(-240.28 -237.5)"/><path class="cls-5" d="M252.21,552.7c-3.14,0-6.29.08-9.43,0-1.4,0-2.67-.72-2.48-2.43a2.24,2.24,0,0,1,2.45-2c6.29,0,12.58,0,18.87,0,1.4,0,2.69.45,2.7,2.21s-1.26,2.21-2.67,2.24c-3.15.06-6.29,0-9.44,0Z" transform="translate(-240.28 -237.5)"/><path class="cls-3" d="M269.65,548.77h15.14c-5.24.82-10.48,2.05-15.68.36A.45.45,0,0,1,269.65,548.77Z" transform="translate(-240.28 -237.5)"/><path class="cls-6" d="M397.86,387.11c-8.29-6.21-10.63-15.31-11.8-24.85a183.21,183.21,0,0,1-1.78-20.76c0-8.72,1.67-17.18,8.35-23.59a154.16,154.16,0,0,1,47.83-31.55c19.28-8,39.08-10.43,59.79-6.58,20,3.72,37.41,12.61,53.55,24.54,5.7,4.21,11.82,7.9,16.14,13.73,2.17,6.24,1.43,12.74,1.77,19.16,1.09,20.72-13.16,39.3-31.08,45.24a216.14,216.14,0,0,1-47.64,9.6c-19.19,1.86-38.12-.43-57.17-.54-7.21,0-14.46-1.6-21.68-2.48Q406,388.06,397.86,387.11Z" transform="translate(-240.28 -237.5)"/><path class="cls-7" d="M570,468.13c-4.63,1.05-9.32,1.87-13.75,3.75-7.17,3-12.51,7.87-15.53,15.13-1.92,3.22-5.2,2.5-8.07,2.64-14.33.75-28.63-.67-42.92-1.2a372.18,372.18,0,0,1-52.6-5.7,276.37,276.37,0,0,1-35.89-8.82c-3.42-1.1-7.19-1.86-9.26-5.39-1.6-7.7-1.24-15.57-1.72-23.34-.66-10.46-.25-21-.14-31.47.09-8.32,2.18-10.56,10.34-10.58q80-.13,159.92,0c8.11,0,10.37,2.32,10.38,10.55C570.81,431.85,571.36,450,570,468.13Z" transform="translate(-240.28 -237.5)"/><path class="cls-8" d="M393.1,469c18.92,7.33,38.58,11.45,58.67,14.07,18.23,2.38,36.49,3.55,54.86,4.11,11.41.34,22.76,1.4,34.13-.19-1.55,7.33-.34,13.94,5.68,18.88,5.46,4.48,12.34,4.86,19.7,5.23-3,4.62-7.45,5.18-11.28,6.75-1.17,1-2.56.57-3.85.57q-70.53,0-141.06,0c-1.29,0-2.68.4-3.84-.58-5.29-1.59-10.31-3.6-13.13-8.86-1.07-10-1.48-20.05-1.67-30.1C391.24,475.54,390.29,471.91,393.1,469Z" transform="translate(-240.28 -237.5)"/><path class="cls-9" d="M612.71,533.91c2.63,2.35,1.15,5.32,1.23,8.06-1.56,1.52-3.54,1.74-5.56,1.81-2.33.08-4.67.1-7,0-28.65-.69-57.29.48-85.9,1.29-42.8,1.21-85.6.8-128.38.42-19.22-.17-38.62-.28-57.71-3.69a43.63,43.63,0,0,1-12.86-3.9c-1.65-.87-3.88-1.52-3.36-4.23,1.83-1.18,3.89-.73,5.85-.73q143.67,0,287.36,0C608.53,533,610.73,532.7,612.71,533.91Z" transform="translate(-240.28 -237.5)"/><path class="cls-10" d="M393.1,469c0,11.61-.38,23.22.62,34.81.15,1.7.86,3.65-.74,5.17a11.66,11.66,0,0,1-1.7-6.05q-3.51-45.51-7-91c-.71-9.41,2.85-13.24,12.31-13.24q84.12,0,168.23,0c8.66,0,12.46,4.08,11.83,12.76-1.26,17.58-2.67,35.15-4,52.73-.13,1.8.1,3.85-2.62,3.95-3-1-2-3.53-1.87-5.47,1.63-17.6.4-35.24.87-52.86.08-3.05-1.61-4.58-4.58-4.76-1-.06-2,0-3,0H400.15c-7.87,0-8.11.38-8.21,8.15C391.7,431.8,392.52,450.4,393.1,469Z" transform="translate(-240.28 -237.5)"/><path class="cls-11" d="M313.06,534.15c8.65,5.65,18.7,6.41,28.48,7.65,6.55.82,13.25.7,19.88,1,48.24,2.08,96.52,1.31,144.78.85,14.94-.15,30,.21,44.87-.84,21-1.47,41.92-.37,62.87-.82.14,6,.14,6-6.52,6H299.61c-2.16,0-4.33.09-6.49.14s-3.2-1-3.19-3.18c1.16-3.59-1.92-8,2.19-11C299.12,532.42,306.1,532.15,313.06,534.15Z" transform="translate(-240.28 -237.5)"/><path class="cls-12" d="M397.86,387.11c3.93-2.13,8.11-1.4,12.07-.53,4.25.95,8.68.68,12.76,1.61,13.33,3,27,1.2,40.38,3.3,7.89,1.23,16.47,2.36,24.44-1.27a4.6,4.6,0,0,1,2-.19c10.44.33,20.52-1.34,30.73-3.67,8.85-2,17.42-4.34,25.59-8.16,11.07-5.19,18.23-13.91,22-25.39,3.43-10.45,3-21.11.9-31.76a2.84,2.84,0,0,1,1.25-3,25.6,25.6,0,0,1,6.17,18.33c-.38,10.62-.35,21.18-1.86,31.81-2,14.47-16.59,26.16-29.91,26-41.81-.49-83.63-.26-125.44-.11C411,394.11,403.72,392.93,397.86,387.11Z" transform="translate(-240.28 -237.5)"/><path class="cls-13" d="M454.88,267.24c1-7.45,1.86-14,2.63-20.57.23-1.88,1.34-2.4,2.94-2.75A95.54,95.54,0,0,1,501,244c1.69.36,2.6,1,2.8,2.82q1,8.67,2.18,17.3c.29,2.14,0,3.11-2.51,2.5C487.5,262.75,471.54,263,454.88,267.24Z" transform="translate(-240.28 -237.5)"/><path class="cls-14" d="M392.11,301.82c11.5-27.77,31.63-46.25,61-56.18-1,7.65-1.9,14.63-2.78,21.62-.17,1.39-1.14,1.93-2.28,2.3C427.11,276.32,409.2,288.2,392.11,301.82Z" transform="translate(-240.28 -237.5)"/><path class="cls-15" d="M357.18,490.93c-.54-1.75-1-3.53-1.64-5.24-2.89-7.7-2.94-7.75,4.57-11.67,8.81-4.61,15.93-11.27,23.09-19.28,1,13.95,2,27,2.94,40.09.82,2.18-.35,3.56-2.1,4.39a63.44,63.44,0,0,1-20.81,6.22c-4.72.47-5.6-.7-5.72-5.63C357.44,496.85,357.94,493.86,357.18,490.93Z" transform="translate(-240.28 -237.5)"/><path class="cls-16" d="M384.07,528.66c-3.07-2.09-5.73-4.42-4.9-8.71a4.61,4.61,0,0,1,5.05-.91c1.77,3.21,4.33,4.43,7.91,3.06,52.59.93,105.17,0,157.74.48,7.8.07,15.56-.94,23.33-.44a10,10,0,0,0,2.1-1.21c3-.38,4.16,1.81,5.37,3.92-.74,2.39-3.26,2.65-4.83,4-1.52,1-3.24.53-4.86.53q-91.11,0-182.21,0C387.2,529.42,385.43,530.14,384.07,528.66Z" transform="translate(-240.28 -237.5)"/><path class="cls-14" d="M568.64,300.19c-16.72-13.34-34.54-24.68-55.15-31.1a3.21,3.21,0,0,1-2.65-3c-.83-6.54-1.72-13.06-2.7-20.38C536.84,255.14,556.68,273.21,568.64,300.19Z" transform="translate(-240.28 -237.5)"/><path class="cls-17" d="M579.86,494.85c.2-8.31-2.56-15.58-8.76-22.34,3.37-.26,5.79-.42,8.2-.62,1.37-.12,2.73-.37,2.9-2.11a2,2,0,0,0-2.47-2.36c-2.89.41-2.85-1.18-2.68-3.22.45-5.14.81-10.29,1.27-16.24a30.24,30.24,0,0,1,13.15,13.22c4.51,9.1,7.48,18.55,3.37,28.74-2.86,4.25-7.32,6.18-11.82,7.95C580.15,499,578.79,498.07,579.86,494.85Z" transform="translate(-240.28 -237.5)"/><path class="cls-15" d="M546.06,497.92c-2.92-7.83-.7-13.86,7-19.11,10.62-7.2,16.8-5.15,20.95,7A19.62,19.62,0,0,1,574,500C564.39,502.91,555,503.25,546.06,497.92Z" transform="translate(-240.28 -237.5)"/><path class="cls-18" d="M580.82,330.05c-.18-6.79-1.74-13.37-3.39-20,9,1.76,12.64,5.59,13.21,14.2.83,12.56,1.86,25.12.14,37.69-2.85,5.62-7.4,8.69-11.91,8,.5-6.35,2-12.6,1.89-19A136.8,136.8,0,0,1,580.82,330.05Z" transform="translate(-240.28 -237.5)"/><path class="cls-17" d="M370.21,359c-1.12-13.33-.27-26.61,1-39.89.3-3.25,2.78-4.37,4.94-5.78s4.63-2.55,8.05-4.4c-5.78,20.15-4.7,39.55-2,59,.76,3.36-1.58,2.68-3.07,2C374.36,367.75,370.06,365.12,370.21,359Z" transform="translate(-240.28 -237.5)"/><path class="cls-1" d="M388.83,511.59a22.44,22.44,0,0,1-2.87.13c-10.55-1.08-13,2-10.43,14,.44,2.1.75,3-1.83,3-9.78-.07-19.55,0-29.35,0-.37-2.14,1.14-3.31,1.55-4.86.83-3.14-.19-7.58,2.52-9.17,2.54-1.48,6.49-.46,9.79-.77a64.76,64.76,0,0,0,28.52-9.33C387.48,507.11,388.13,509.27,388.83,511.59Z" transform="translate(-240.28 -237.5)"/><path class="cls-19" d="M580.67,524.85a6.48,6.48,0,0,1-4.6-3.92c-1,.66-1.08,1.37-.09,2.12-1.56,1.44-3.48.9-5.25.9q-87.86,0-175.69,0c-1.76,0-3.71.55-5.15-1.1-1.13-1-1.77-2-.66-3.38,2.5-1.77,5.11-.28,7.67-.25,3,1.25,5.85,2.74,9.2,2.58a10,10,0,0,1,3.95-.32H550.92a10.34,10.34,0,0,1,4,.31c3.36.14,6.28-1.25,9.21-2.61,5.92-.81,11.88-2.43,17.66.69C582,521.65,582,523.4,580.67,524.85Z" transform="translate(-240.28 -237.5)"/><path class="cls-20" d="M312,498.59c5.21-.4,7.73,1.64,6.83,7.17-.61,3.79,1.68,5,5,5,3.19,0,5.78-.75,5.36-4.72-.31-3,.64-4.38,3.81-4.12a10,10,0,0,0,3.93-.53c4.25-1.43,3.88.79,2.93,3.55-2.67,10.69-15.72,18.7-26.44,16.23a4.87,4.87,0,0,1-3.6-2.34c2.77-6.71,2.77-6.71-2.49-10.32a4,4,0,0,1,.1-3.59C309.47,503.18,310.34,500.6,312,498.59Z" transform="translate(-240.28 -237.5)"/><path class="cls-3" d="M289.93,545a7.58,7.58,0,0,0,3.19,3.18c2,1.41,4.2.75,6.31.75q152.88.06,305.78,0h6c-1.77,1.53-3.24,1-4.55,1Q452,550,297.38,550c-2,0-4,.27-5.87-.79C289.84,548.2,288.14,547.26,289.93,545Z" transform="translate(-240.28 -237.5)"/><path class="cls-21" d="M313.06,534.15,292.12,534c0-.29.07-.58.09-.86,1.47-1.19,3.21-.62,4.81-.62q154.94,0,309.85,0c1.65,0,3.34-.35,4.93.4.3.34.61.68.91,1q-132.6,0-265.2.05C336,534,324.54,534.08,313.06,534.15Z" transform="translate(-240.28 -237.5)"/><path class="cls-22" d="M611.8,532.88q-144.57,0-289.14.08c-10.15,0-20.3.1-30.46.15,1.23-1.71,3.05-1,4.61-1Q451.94,532,607.07,532C608.67,532,610.44,531.46,611.8,532.88Z" transform="translate(-240.28 -237.5)"/><path class="cls-23" d="M387.42,316.5a6.74,6.74,0,0,1,2.4-6.45c17-15.48,35.52-28.53,57.47-36.13,1.28-.45,2.69-1.75,3.83.35,1.32,2.43.48,3.37-2,4.15-17.58,5.38-33.14,14.54-47.61,25.71A104.63,104.63,0,0,0,387.42,316.5Z" transform="translate(-240.28 -237.5)"/><path class="cls-24" d="M573.69,314.48c-18.4-16.69-38.39-29.73-61.94-36.77-1.58-.47-2.5-.88-1.86-3,.74-2.53,2.07-2,3.73-1.5a139.25,139.25,0,0,1,30.91,14.74,219.7,219.7,0,0,1,25.07,18.84A10.6,10.6,0,0,1,573.69,314.48Z" transform="translate(-240.28 -237.5)"/><path class="cls-25" d="M481.53,268.24a108,108,0,0,1,21.57,2.84c1.41.34,3.24.2,2.54,2.6-.53,1.82-1.55,2.08-3.39,1.71a101.65,101.65,0,0,0-43.06.36c-2.09.48-3.11-.2-3.63-2.14-.67-2.5,1.28-2.18,2.62-2.51A104.5,104.5,0,0,1,481.53,268.24Z" transform="translate(-240.28 -237.5)"/><path class="cls-26" d="M305,518c-2-10.77-2.9-21.68-3.89-32.58-.26-2.86.61-3.89,3.56-3.48a107.68,107.68,0,0,0,10.91.9c2.22.08,3.56.76,3.3,3.17-.32,3.12-.21,6.42-1.26,9.29-1.11,3-3.83,1-5.89.66-3.22-1.47-1-5.74-4.12-7.71-1.91,3,.53,6.3-.91,9.09-1.43,5.53,1,10.88.76,16.36,0,.54,0,1.07-.08,1.6C307.06,516.58,307,518.15,305,518Z" transform="translate(-240.28 -237.5)"/><path class="cls-27" d="M310.16,518.22c7.69,4.13,22.66-.81,27.26-9,.81-1.44,1.64-2.87,2.46-4.3.09,1,.19,2,.28,3.05,2.69,5.27,0,10-1.56,14.82a3.8,3.8,0,0,1-3.18,2.2,68.83,68.83,0,0,1-23.22,0c-3.27-.63-4.21-3.42-3.54-6.63A.89.89,0,0,1,310.16,518.22Z" transform="translate(-240.28 -237.5)"/><path class="cls-28" d="M330.4,457.23c5.76-1.5,14.27,4.62,15.28,10.81.29,1.76-.63,2-1.83,2.15-2.27.32-4.56.59-6.84.87-3,.26-6.76,2-8.56-1.06-1.91-3.21-1.22-7.32-.23-11A2.47,2.47,0,0,1,330.4,457.23Z" transform="translate(-240.28 -237.5)"/><path class="cls-29" d="M384.07,528.66c4.16.07,8.32.2,12.48.2q89.64,0,179.29,0c-.37,2.15-2,1-3,1q-92.14.11-184.27,0C387,529.93,385.16,530.53,384.07,528.66Z" transform="translate(-240.28 -237.5)"/><path class="cls-30" d="M341,497.86l-4.74,1.32c-6.7.6-6.7.6-6.71-5.75,0-10.36.69-11,11-9.93,3.85.4,5.41,2.19,4.53,6C344.35,492.54,345.33,496.56,341,497.86Z" transform="translate(-240.28 -237.5)"/><ellipse class="cls-31" cx="240.2" cy="159.94" rx="123.41" ry="0.3"/><path class="cls-32" d="M318.77,470.82l-.79,1.07c-2.5,2.22-5,1.64-7.53.05-1.91-2.15-.53-4.38-.18-6.62-2.18,1.61-2.24,4.77-4.53,6.32-1.33.45-2.54.45-3.44-.85-1.22-5.08,2.74-7.72,5.29-10.94,3.14-4,7-4.43,11.29-1.77C321.28,462.35,321.45,466.6,318.77,470.82Z" transform="translate(-240.28 -237.5)"/><path class="cls-33" d="M406.11,517.86H554.86c.15.06.36.07.46.17a4.89,4.89,0,0,1,.39.67c-1,.08-1.91.23-2.86.24H409.09a28.49,28.49,0,0,1-2.92-.24c-.08,0-.2-.24-.21-.38A1.83,1.83,0,0,1,406.11,517.86Z" transform="translate(-240.28 -237.5)"/><path class="cls-34" d="M554.87,521.79c-10,.07-20,.2-30,.19q-59.4,0-118.82-.18c1.58-1.37,3.5-.8,5.27-.8q69.11-.06,138.22,0C551.36,521,553.28,520.44,554.87,521.79Z" transform="translate(-240.28 -237.5)"/><path class="cls-35" d="M546.06,497.92c9.15,2.72,18.53,2.19,27.89,2,0,4.5-2.13,6.43-6.76,6.34-5.67-.1-11.36.12-16.46-2.81A8.93,8.93,0,0,1,546.06,497.92Z" transform="translate(-240.28 -237.5)"/><path class="cls-36" d="M357.18,490.93c1.69,3.09.91,6.46,1,9.71.06,2.1.31,3.57,2.93,3.36,8.32-.65,16-3.49,23.64-6.66.7-.29.94-1.65,1.39-2.51,1.26,2.77.32,4.59-2.22,6.14a58.2,58.2,0,0,1-23.79,8.25c-2.65.32-3-.48-2.94-2.86C357.37,501.22,357.2,496.07,357.18,490.93Z" transform="translate(-240.28 -237.5)"/><path class="cls-37" d="M370.21,359c1.15,5.54,5.75,7.69,10,10.17,1.46.85,1.58-.39,1.92-1.26l3,13c-4.89-1.29-8.58-3.64-12.23-6.1-2-1.32-1.69-3.48-1.9-5.42C370.61,365.92,369.82,362.49,370.21,359Z" transform="translate(-240.28 -237.5)"/><path class="cls-38" d="M341,497.86c2.8-2.91,1.86-6.87,2.89-10.28a1.19,1.19,0,0,0-.07-1c-3.06-3.45-7.06-.91-10.58-1.59-1.79-.34-3.31.24-3.3,2.55a31.54,31.54,0,0,1-.05,5c-.78,5.08,1.12,7.42,6.37,6.65-7,1.77-7.22,1.62-7.23-5,0-11.66,0-11.66,11.69-12.06,6.56-.22,6.63-.21,6,6.28-.55,5.78-1.27,11.54-1.91,17.31-.54,1,.08,2.36-1.14,3.44-2-1.49-1-3.4-.72-5.17C342.44,501.89,345.42,498.68,341,497.86Z" transform="translate(-240.28 -237.5)"/><path class="cls-39" d="M578.87,370c5-1.17,8.12-5.09,11.91-8,.07,12.52-2.51,15.87-14.67,18.58C577.07,376.9,578,373.45,578.87,370Z" transform="translate(-240.28 -237.5)"/><path class="cls-40" d="M309.37,518.1c-.13,4.5,2.26,5.77,6.5,6.08a150.36,150.36,0,0,0,17.38-.19c3.13-.14,4.89-1.41,5.24-4.69.41-3.78,1.1-7.54,1.67-11.31l1.75,1c.79.26,1.68.3,2.14,1.16.84,1.83.2,3.39-.89,4.86a2.09,2.09,0,0,0-.89,1.14c-2,9.89-1.95,10.17-11.79,11.59a47.51,47.51,0,0,1-19.2-1.05c-3.61-1-5.42-3.69-5.12-7.52.11-1.47.69-2.92.09-4.4a2.54,2.54,0,0,1,.11-.82,1.73,1.73,0,0,1,1.23-.44,2.24,2.24,0,0,1,1.12.74A4.33,4.33,0,0,1,309.37,518.1Z" transform="translate(-240.28 -237.5)"/><path class="cls-41" d="M306.25,514.73a2.66,2.66,0,0,1,.43.88c.53,9.82,1.35,10.09,13,11.15a48.68,48.68,0,0,0,12.34-.44c8-1.34,8.23-1.42,9.16-9.45.19-1.68.19-1.68,2-1.9a62,62,0,0,1-.52,6.41,7.37,7.37,0,0,1-6.54,6.5,70.64,70.64,0,0,1-21.72.37C307,527.12,305.6,525.46,305,518,306.37,517.25,305.88,515.83,306.25,514.73Z" transform="translate(-240.28 -237.5)"/><path class="cls-42" d="M305.86,497.16c-.23-2.48-.53-5-.69-7.42-.11-1.77.23-3.44,2.41-3.72s2.89,1.35,3.22,3c.44,2.28.64,4.6.95,6.9-1.12,1-.78,1.85.24,2.65.09,3,.44,6.18-4.1,6.05a2.26,2.26,0,0,1-1.46-.61C305.41,501.81,304.66,499.56,305.86,497.16Z" transform="translate(-240.28 -237.5)"/><path class="cls-43" d="M579.86,494.85c.13,2.07.85,2.94,3,1.71,4-2.27,8-4.43,12-6.64-2.16,8-8.15,13.41-16.93,14.9Z" transform="translate(-240.28 -237.5)"/><path class="cls-44" d="M326.12,455.48a6.91,6.91,0,0,1-4.29,0c-1.67-6.5-.51-13.11-.65-19.67,0-1.57,1-2.24,2.61-2.3,1.75-.06,3.11.55,3.07,2.38C326.75,442.41,328,449,326.12,455.48Z" transform="translate(-240.28 -237.5)"/><path class="cls-45" d="M349.93,473.84c.74,4.18-1,5.63-5.22,6.32s-8.44.21-12.65-.15c-4.44-.39-4.94-1.34-2.8-5.92,1.43,2.4,3.49,2.51,6,2.06C340.16,475.28,344.83,473.16,349.93,473.84Z" transform="translate(-240.28 -237.5)"/><path class="cls-46" d="M349.93,473.84c-5.49,1.26-10.82,3.08-16.36,4.19-4,.81-5.15-.12-4.31-3.94,5.88-.34,11.76-.69,17.64-1C348,473.06,349.23,472.36,349.93,473.84Z" transform="translate(-240.28 -237.5)"/><path class="cls-47" d="M581.74,519.87c-5.89-.27-11.84,1.08-17.66-.69,4.55-4.79,10.43-2.77,15.84-3C582.52,516.11,581.76,518.32,581.74,519.87Z" transform="translate(-240.28 -237.5)"/><path class="cls-48" d="M396.9,519.22c-2.51,1.65-5.36.28-8,.89a2.83,2.83,0,0,1-3.84.14l-5.91-.3c-.47-2.62.22-4.08,3.3-3.88C387.45,516.4,392.81,514.86,396.9,519.22Z" transform="translate(-240.28 -237.5)"/><path class="cls-49" d="M348.93,503.9l1.49-16.5c3.17,5.58,3.15,11.47,2.4,17.46C351.18,505.93,349.62,506.65,348.93,503.9Z" transform="translate(-240.28 -237.5)"/><path class="cls-50" d="M322.62,498.11l-.41-.14c-1.4-4-.35-8.15-.63-12.21-.12-1.7.85-2.29,2.45-2.28s2.5.54,2.49,2.26c0,3.47.07,6.95,0,10.42C326.42,499.11,324.46,498.54,322.62,498.11Z" transform="translate(-240.28 -237.5)"/><path class="cls-51" d="M318.67,479.87c-4.49-.3-9,.55-13.48-.62,1.87-1.88,4.72-2.78,5.66-5.62a3.08,3.08,0,0,1,1.5-.6c.67,0,1.32-.06,2,0C319.89,473.2,320.5,474.17,318.67,479.87Z" transform="translate(-240.28 -237.5)"/><path class="cls-52" d="M326.12,455.48c0-6.09,0-12.19-.11-18.29,0-1.4.36-3.21-2-3.2s-2,1.78-2,3.2c-.1,6.09-.15,12.18-.21,18.28a1,1,0,0,1-.42.32c-1.86-2.66-.81-5.67-.79-8.47,0-4.72-.78-9.49.47-14.17,2,.16,4.3-1.12,6.06.91.4,7.23,1,14.47-.33,21.67A2.23,2.23,0,0,1,326.12,455.48Z" transform="translate(-240.28 -237.5)"/><path class="cls-53" d="M322.06,458.29H326c2.47,3.07,1.43,6.58,1.14,9.94a3.16,3.16,0,0,1-6.2,0C320.64,464.87,319.6,461.36,322.06,458.29Z" transform="translate(-240.28 -237.5)"/><path class="cls-54" d="M326.87,504.75c.28,2.42-.24,3.74-2.77,3.8-3.34.08-3.25-2.11-3-4.26.15-1.25-1.26-3.79,1.74-3.37C325,501.23,327.81,501.51,326.87,504.75Z" transform="translate(-240.28 -237.5)"/><path class="cls-55" d="M304,479c-.81,0-1.62,0-2.43,0-2.21.07-3.53-.36-3.64-3.18-.13-3.63,2.22-2.77,4.15-3a11.78,11.78,0,0,1,8.48-.53,1.43,1.43,0,0,1,.77,1.45l-.41.4C308.51,475.63,305.38,476.06,304,479Z" transform="translate(-240.28 -237.5)"/><path class="cls-56" d="M322.62,498.11c2-.1,3.57-.44,3.44-3-.15-2.79,0-5.6-.07-8.4,0-1.41-.31-2.7-2.18-2.56-1.56.12-1.74,1.32-1.73,2.5,0,3.79.08,7.57.12,11.36-2.71-4.39-1-9.13-.94-13.7,0-1.71,2-1.25,3.23-1.32a2.11,2.11,0,0,1,2.54,2.29c.06,4.12.51,8.3,0,12.35C326.49,501.33,324.16,498.3,322.62,498.11Z" transform="translate(-240.28 -237.5)"/><path class="cls-57" d="M323.82,479.92c-2.65.37-2.82-1.27-2.9-3.3-.12-2.82,1.71-2.5,3.54-2.64,2.42-.19,2.52,1.23,2.61,3C327.18,479.46,326.05,480.25,323.82,479.92Z" transform="translate(-240.28 -237.5)"/><path class="cls-58" d="M304,479c-1-6.3,3.29-5.12,6.92-4.82,1.49,5.49-2.51,4.86-5.71,5.12Z" transform="translate(-240.28 -237.5)"/><path class="cls-59" d="M326.93,458.17l1-.06a33.09,33.09,0,0,1,0,13.8c-2.64-.22-5.45,1-7.88-.94a31.74,31.74,0,0,1,.11-13l1,.13c.76,3.1.28,6.25.32,9.37,0,2,.52,3.08,2.79,3s2.22-1.39,2.29-3C326.69,464.41,326.11,461.26,326.93,458.17Z" transform="translate(-240.28 -237.5)"/><path class="cls-60" d="M326.93,458.17c0,3.14,0,6.29.08,9.44.05,2,0,3.5-2.74,3.54s-3.4-1.12-3.26-3.56c.17-3.14.12-6.3.16-9.44a1.44,1.44,0,0,1,.89.14c0,3.13,0,6.26,0,9.39,0,1.28.43,2.26,2,2.26s1.94-1,2-2.27c0-3.13,0-6.26,0-9.39A1.31,1.31,0,0,1,326.93,458.17Z" transform="translate(-240.28 -237.5)"/><path class="cls-61" d="M310.94,473.12l-8.89-.31c-.39-.73-.8-1.46.25-2l3.57-.16c1.49-.8,3-1.13,4.37.16,2.45,1.33,5.07,1.36,7.74,1.1l0,1C315.64,473.93,313.29,473.53,310.94,473.12Z" transform="translate(-240.28 -237.5)"/><path class="cls-62" d="M348.93,503.9c1,1.59,2.49,1.07,3.89,1,0,.82,0,1.63,0,2.45,0,1.81-.85,2.65-2.73,2.57-2.38-.1-2-1.71-1.8-3.15A28,28,0,0,1,348.93,503.9Z" transform="translate(-240.28 -237.5)"/><path class="cls-45" d="M327.92,471.91q0-6.9,0-13.8l0-2.19v0l2.42,1.28c-2.56,4-.88,8.32-1.08,12.48-.05,1.24,1.23,1.34,2.24,1.35H337C334.12,472.81,331,471.68,327.92,471.91Z" transform="translate(-240.28 -237.5)"/><path class="cls-63" d="M321.1,433.15q.16,11.33.32,22.64c-.42-.45-1.22-.89-1.22-1.34,0-7.09,0-14.18.11-21.27,0-.09.23-.24.34-.23S321,433.08,321.1,433.15Z" transform="translate(-240.28 -237.5)"/><path class="cls-64" d="M326.83,455.73l.33-21.67c1.9,7.23.4,14.59.82,21.88v0Z" transform="translate(-240.28 -237.5)"/><path class="cls-65" d="M580.82,330.05a149.33,149.33,0,0,1-.06,20.94A55,55,0,0,1,580.82,330.05Z" transform="translate(-240.28 -237.5)"/><path class="cls-45" d="M310.94,473.12l7-.22c3.52,2,2.55,4.43.72,7,.46-5.9.46-5.9-7.37-6.14A2.51,2.51,0,0,1,310.94,473.12Z" transform="translate(-240.28 -237.5)"/><path class="cls-45" d="M320.15,458q-.06,6.48-.11,13l-1.28-.15.12-12.74Z" transform="translate(-240.28 -237.5)"/><path class="cls-66" d="M344.05,510.11a2.57,2.57,0,0,1-2.14-1.16c.39-1.66-.32-3.54,1-5,.08,1.27.16,2.54.25,3.84,1.48,0,.81-1.62,1.61-2.11C345,507.25,345.35,508.82,344.05,510.11Z" transform="translate(-240.28 -237.5)"/><path class="cls-67" d="M394.32,390.35l4.33,3.42C395.2,395,394.51,393,394.32,390.35Z" transform="translate(-240.28 -237.5)"/><path class="cls-68" d="M568.1,389.81c-1.28,2.83-1.54,5-4.94,4.19C564.19,392.19,565.71,391.39,568.1,389.81Z" transform="translate(-240.28 -237.5)"/><path class="cls-14" d="M297.82,330.17c-10.65-3.52-18.13-12.23-18.61-21.67-.51-9.94,5.4-19.05,15.87-23.68,13.26-5.86,26-4.75,37.35,4.51,7.45,6.08,10.91,13.94,7.68,23.71-6,12.1-20.27,19.87-34,18.34A60,60,0,0,1,297.82,330.17Z" transform="translate(-240.28 -237.5)"/><path class="cls-69" d="M297.82,330.17c8.38-.34,16.81.57,24.94-2.88,7.28-3.1,12.68-8.15,17.35-14.25a9,9,0,0,1-2.92,6.67c-3.82,3.78-5.08,7.55-.87,12.64-8.19-5.07-15.53-.36-23.05.32C308,333.15,302.68,332.79,297.82,330.17Z" transform="translate(-240.28 -237.5)"/><path class="cls-70" d="M391.08,347.74c-.32-13,4.28-23.06,13.7-30.91a130.91,130.91,0,0,1,18.6-13.31,36,36,0,0,1,10.56-4.24c2.27-.47,4.75-.57,6.23,1.89s0,4.53-1.53,6.22c-1.91,2.06-4.17,3.8-6.21,5.74-10.08,9.59-21.31,18.18-27.13,31.46-1.53,3.49-3.23,6.89-3.79,10.75-.41,2.84-1.95,5.18-5,5.42-3.22.26-3.77-2.54-4.66-4.91C390.76,352.93,391.33,349.93,391.08,347.74Z" transform="translate(-240.28 -237.5)"/><path class="cls-71" d="M462.82,458.74a17.18,17.18,0,1,1,34.36-.64c.11,10.09-7.09,17.71-16.86,17.85A17,17,0,0,1,462.82,458.74Z" transform="translate(-240.28 -237.5)"/><path class="cls-72" d="M385.08,520.25a4.88,4.88,0,0,1,3.84-.14c.32.91.64,1.83,1,2.74-1,1.33-2.12,2.74-4,1.72S384.63,521.83,385.08,520.25Z" transform="translate(-240.28 -237.5)"/><path class="cls-73" d="M576,523.05c-1.5-.3-3.23.53-4.75-1.1,1.41-1.65,3.25-.86,4.84-1Z" transform="translate(-240.28 -237.5)"/><path class="cls-74" d="M309.37,518.1c-.49-1.36-1-2.71-1.46-4.07-.91-1.64-1.37-3.25.33-4.71,2.48-2.14,4-.59,4.68,1.62.93,3,1.67,6.21-2.77,7.28l-.37-.17Z" transform="translate(-240.28 -237.5)"/><path class="cls-41" d="M308.24,509.32l-.33,4.71-1.07,0c0-3.29-1.27-6.61.29-9.86a1.1,1.1,0,0,1,.76.52C308,506.2,308.12,507.76,308.24,509.32Z" transform="translate(-240.28 -237.5)"/><path class="cls-75" d="M307.13,504.12c-.1,3.29-.19,6.58-.29,9.86l-.48-.07c-.56-4.53-1.13-9.07-1.66-13.6-.15-1.23-.81-2.69,1.16-3.15C306.32,499.47,305.76,502,307.13,504.12Z" transform="translate(-240.28 -237.5)"/><path class="cls-76" d="M310.24,470.79l-4.37-.16c.48-3.83,3.25-6.18,5.72-9.8C312.36,465,310.85,467.84,310.24,470.79Z" transform="translate(-240.28 -237.5)"/><path class="cls-77" d="M316.34,296.82c-1.09,3.19-2.26,6.65-3.45,10.09-1.26,3.61-2.54,7.2-3.81,10.81a1.83,1.83,0,0,1-2.25,1.43c-1.38-.31-1.21-1.53-.92-2.4q3.58-10.59,7.34-21.13a1.64,1.64,0,0,1,2-1.06C316.26,294.8,316.34,295.67,316.34,296.82Z" transform="translate(-240.28 -237.5)"/><path class="cls-78" d="M295.15,307.38c3,1.15,5,1.89,7,2.7.92.37,2,.81,1.57,2.09s-1.53,1.08-2.5.72a82,82,0,0,1-7.87-3c-2.67-1.32-2.86-3.34-.16-4.77a66,66,0,0,1,7.86-3.06c1-.36,2.11-.55,2.6.55s-.57,1.83-1.47,2.2C300.25,305.59,298.23,306.26,295.15,307.38Z" transform="translate(-240.28 -237.5)"/><path class="cls-79" d="M326.83,307.43c-3.31-1.25-5.45-2-7.58-2.89-.78-.32-1.49-.85-1.19-1.86s1.29-1,2-.79a60.11,60.11,0,0,1,8.79,3.29c2.32,1.22,2.22,3.35-.14,4.55a80.16,80.16,0,0,1-8.3,3.24,1.66,1.66,0,0,1-2.2-.51c-.6-1.12.22-1.9,1.19-2.29C321.55,309.31,323.73,308.57,326.83,307.43Z" transform="translate(-240.28 -237.5)"/><path class="cls-80" d="M472.27,465.8c1.79-3.4-.25-5.67-2.67-8-2.19-2.08-1.42-3.71,1.39-3.91,3.59-.27,5.68-1.93,7.06-5.22,1.13-2.66,3.11-2.58,4.19.06,1.36,3.35,3.63,4.79,7.12,5.15,2.9.3,3.43,2.08,1.25,4-2.65,2.29-3.75,4.66-2.75,8.25.77,2.74-1,3.91-3.39,2.45-3.07-1.84-5.71-1.77-8.77,0C473.24,470.06,472,468.81,472.27,465.8Z" transform="translate(-240.28 -237.5)"/></g></svg>